<svg width="64" height="78" viewBox="0 0 64 78" fill="none" xmlns="http://www.w3.org/2000/svg">
<path d="M22.0794 76C15.352 63.8841 6.0403 50.6165 2.11902 36.959C0.716522 32.0742 12.1473 40.799 13.3611 41.6774C14.1583 42.2543 14.2312 42.5921 14.3553 40.9164C14.8004 34.9036 14.0284 28.78 13.8581 22.7657C13.7568 19.1841 14.1191 18.2447 17.3378 20.7489C22.1216 24.4707 25.2514 29.6515 29.727 33.6104C31.625 35.2893 31.4421 24.5981 31.5242 23.8692C31.9699 19.911 32.5258 13.8238 35.0038 10.3989C35.7731 9.33574 42.6793 23.9177 44.8311 21.7763C49.2704 17.3586 53.3367 12.3835 56.7232 7.12642C56.9796 6.72828 60.5469 -0.794843 60.5469 3.13099C60.5469 13.5132 60.7007 23.1906 62 33.5343" stroke="#A414D5" stroke-width="4" stroke-linecap="round"/>
</svg>
